<?xml version="1.0" standalone="no"?>
<!DOCTYPE svg PUBLIC "-//W3C//DTD SVG 20010904//EN"
 "http://www.w3.org/TR/2001/REC-SVG-20010904/DTD/svg10.dtd">
<svg version="1.0" xmlns="http://www.w3.org/2000/svg"
 width="149.000000pt" height="149.000000pt" viewBox="0 0 149.000000 149.000000"
 preserveAspectRatio="xMidYMid meet">
<metadata>
Created by potrace 1.11, written by Peter Selinger 2001-2013
</metadata>
<g transform="translate(0.000000,149.000000) scale(0.100000,-0.100000)"
fill="#000000" stroke="none">
<path d="M112 1439 c-22 -92 -10 -191 20 -173 7 4 8 3 4 -5 -4 -6 0 -13 8 -16
9 -3 24 -8 34 -12 21 -8 19 -7 65 -16 20 -5 37 -10 37 -13 0 -3 -12 -21 -26
-39 -14 -19 -23 -39 -20 -44 4 -5 1 -13 -5 -17 -8 -4 -9 -3 -5 4 4 7 5 12 2
12 -7 0 -56 -102 -85 -178 -18 -45 -19 -53 -6 -58 12 -5 12 -9 -2 -32 -16 -26
-15 -26 10 2 20 21 27 25 27 13 0 -16 -31 -39 -59 -43 -8 -2 -17 -7 -20 -12
-3 -4 -14 -11 -23 -15 -10 -3 -18 -11 -18 -18 0 -6 6 -9 14 -6 25 10 26 -5 1
-25 -13 -10 -22 -25 -19 -32 3 -8 0 -17 -7 -22 -8 -5 -10 -3 -5 7 4 8 -2 3
-13 -11 -16 -19 -21 -39 -21 -87 0 -35 4 -63 10 -63 5 0 13 -12 16 -27 4 -16
9 -32 13 -38 3 -5 6 -16 8 -24 3 -20 33 -49 33 -32 0 19 27 43 35 31 4 -6 10
-8 14 -5 5 2 23 -9 41 -25 19 -17 39 -30 45 -30 6 0 24 -13 41 -28 26 -24 29
-32 22 -52 -5 -14 -16 -32 -25 -42 -8 -9 -12 -22 -7 -29 4 -7 3 -10 -3 -6 -5
4 -16 -4 -22 -17 -11 -20 -10 -29 13 -64 14 -23 26 -44 26 -47 0 -3 9 -14 20
-25 27 -27 25 -37 -12 -60 l-33 -20 144 0 c124 0 142 2 137 15 -3 9 6 28 21
45 25 28 52 42 38 20 -4 -7 2 -9 19 -4 42 10 31 -13 -21 -46 l-48 -30 483 0
482 0 0 234 c0 142 -4 237 -10 241 -5 3 -26 8 -47 10 -71 8 -102 16 -108 25
-8 13 14 52 26 45 5 -4 9 4 9 17 0 13 6 30 13 37 10 11 9 13 -3 7 -13 -7 -13
-6 0 6 8 7 16 19 18 27 2 8 18 32 36 55 54 67 66 123 66 300 l0 155 -37 28
c-21 15 -40 30 -43 33 -3 3 -36 26 -73 50 -51 34 -70 52 -74 74 -6 28 -58 70
-75 60 -4 -3 -8 1 -8 8 0 19 -57 43 -128 53 -13 2 -29 8 -36 15 -15 12 -256
13 -256 1 0 -4 -28 -13 -62 -20 -83 -17 -238 -98 -340 -179 -43 -34 -66 -63
-35 -46 7 4 8 3 4 -2 -5 -5 -16 -9 -25 -9 -19 0 -120 64 -141 89 -13 15 -22
71 -25 149 -2 42 -11 32 -24 -24z m-89 -774 c-3 -9 -8 -14 -10 -11 -3 3 -2 9
2 15 9 16 15 13 8 -4z"/>
</g>
</svg>
